<svg width="126" height="67" viewBox="0 0 126 67" fill="none" xmlns="http://www.w3.org/2000/svg">
<path d="M125.634 9.69311L124.089 25.6437C123.753 28.444 122.308 31.0671 120.072 32.936L118.411 34.3234C114.143 37.8908 107.957 37.5481 104.595 33.5574C102.975 31.6344 100.842 30.1985 98.4107 29.3926L92.1947 27.3327C91.2433 27.0175 90.6667 26.14 90.696 25.1779C90.7433 23.5611 92.4147 22.3555 93.9653 22.8684C103.011 25.8663 92.5353 22.3945 102.817 25.8018C91.0147 17.8533 91.286 18.149 90.914 17.4938C90.866 17.437 90.704 17.0901 90.6433 16.8041C90.11 14.426 92.9007 12.5364 94.87 13.862C95.4853 14.2764 105.158 20.7915 105.751 21.1913C95.6953 9.25487 96.1947 9.86615 96.0667 9.66064C95.3507 8.51564 95.7207 7.0235 96.6027 6.28639C97.7767 5.21005 99.5367 5.28581 100.477 6.40206L110.253 18.0071C104.096 3.56937 104.483 4.61962 104.43 4.03078C104.294 2.76028 105.247 1.38282 106.673 1.07465C107.767 0.787341 109.058 1.31794 109.571 2.46009L115.523 15.7338L117.485 18.062C118.142 18.8426 119.48 18.3902 119.605 17.3452C119.855 11.9097 119.827 12.3876 119.863 12.1556C120.259 9.65958 122.095 7.80615 123.015 7.56326C124.41 7.11115 125.82 8.14513 125.634 9.69311Z" fill="#F9CFAC"/>
<path d="M124.612 7.68413L122.778 25.8339C122.39 27.9279 121.382 29.8937 119.892 31.481C115.197 36.4881 108.308 36.0715 104.793 31.8984C103.172 29.9753 101.04 28.5395 98.6091 27.7336C90.3111 25.0588 90.7958 25.2173 90.6951 25.1777C90.7218 24.2769 91.2738 23.4146 92.1538 22.9959C92.6478 22.7607 93.0265 22.7395 93.4985 22.7657C98.1138 24.2185 102.822 25.7968 102.816 25.8017C103.318 25.382 103.308 24.6311 102.796 24.2862C91.7771 16.8651 92.4205 17.3613 92.0845 16.9241C91.5818 16.2944 91.4138 15.3161 91.7538 14.4479C91.8951 14.0827 92.1245 13.7626 92.1478 13.7423C93.0105 13.3022 94.0558 13.3147 94.8691 13.8619C95.9538 14.5925 104.578 20.4013 105.75 21.1912C95.3378 8.83106 96.1698 9.84705 95.9985 9.54931C95.8065 9.20596 95.7051 8.81625 95.6891 8.48903C95.6625 8.09024 95.7538 7.70625 95.7598 7.70127C96.3211 5.47653 99.1251 4.79832 100.476 6.40188L110.252 18.007C104.279 4.00053 104.59 4.74029 104.556 4.63677C103.936 2.88959 105.449 0.831123 107.541 1.02202C107.678 1.03803 107.079 -0.180811 114.724 16.6809L116.685 19.0091C117.249 19.6789 118.594 19.6573 119.234 18.5492C119.664 17.8047 119.618 17.0467 119.66 16.1343C119.85 12.0294 119.823 12.5157 119.849 12.2452C119.997 11.1608 120.441 10.0434 121.203 9.06326C121.525 8.65132 122.082 8.05856 122.508 7.79549C123.086 7.43892 123.756 7.37504 124.326 7.56388C124.48 7.61242 124.605 7.68101 124.612 7.68413Z" fill="#FFE4CC"/>
<path d="M117.458 31.2961C117.199 31.5123 116.824 31.4915 116.62 31.2497C113.673 27.7515 113.951 22.4317 117.266 18.8753C117.497 18.6287 117.873 18.6006 118.109 18.8118C118.345 19.023 118.351 19.3938 118.121 19.64C115.221 22.7513 114.979 27.4058 117.557 30.4667C117.761 30.7085 117.717 31.0799 117.458 31.2961Z" fill="#F9CFAC"/>
<path d="M12.9071 19.6623C14.2973 19.8252 15.2889 20.2936 15.8817 21.0673C16.4747 21.8208 16.7711 22.7371 16.7711 23.8163C16.7711 24.4883 16.6689 25.1297 16.4644 25.7406C16.26 26.3311 16.0147 26.8402 15.7284 27.2678C15.4422 27.675 15.1969 27.9397 14.9924 28.0619C14.1747 28.5913 11.6804 28.8561 7.50974 28.8561H1.56042V11.446H8.76707C10.4027 11.446 11.7213 11.5376 12.7231 11.7209C13.7453 11.8838 14.5733 12.2707 15.2071 12.8816C15.8409 13.472 16.1577 14.3782 16.1577 15.6C16.1577 16.6589 15.892 17.5141 15.3604 18.1657C14.8493 18.8173 14.0315 19.2653 12.9071 19.5096V19.6623ZM10.4537 15.1418C10.2493 14.9382 10.004 14.816 9.71774 14.7753C9.452 14.7142 9.02267 14.6836 8.42974 14.6836C7.83687 14.6836 7.38707 14.6938 7.0804 14.7142V18.4406H7.38707C7.48934 18.4406 7.91867 18.4406 8.67507 18.4406C9.43154 18.4406 9.9324 18.3896 10.1777 18.2878C10.3617 18.2064 10.5253 17.9926 10.6684 17.6464C10.832 17.3003 10.9137 16.9235 10.9137 16.5163C10.9137 15.9054 10.7604 15.4473 10.4537 15.1418ZM10.9751 25.3435C11.1182 25.2213 11.2307 24.9974 11.3124 24.6715C11.4147 24.3254 11.4657 23.9792 11.4657 23.633C11.4657 23.2054 11.4044 22.8084 11.2817 22.4418C11.1795 22.0549 11.0364 21.78 10.8524 21.6171C10.6684 21.4339 10.4027 21.3117 10.0551 21.2506C9.728 21.1895 9.16574 21.159 8.3684 21.159C7.85734 21.159 7.428 21.1691 7.0804 21.1895V25.6184C8.04134 25.6388 8.9 25.6286 9.6564 25.5879C10.4129 25.5268 10.8524 25.4453 10.9751 25.3435ZM28.7399 28.8561L28.2493 26.9318C27.3089 28.459 26.0004 29.2226 24.3239 29.2226C22.9542 29.2226 21.8297 28.8459 20.9506 28.0925C20.0919 27.3187 19.6626 26.2394 19.6626 24.8548C19.6626 23.9996 19.9079 23.2564 20.3986 22.6251C20.9097 21.9735 21.6049 21.5153 22.4839 21.2506C23.6289 20.9248 25.3973 20.7415 27.7893 20.7008C27.7893 19.3569 27.7279 18.6442 27.6053 18.5627C27.5031 18.4813 27.1759 18.4406 26.6239 18.4406C26.2764 18.4406 25.7959 18.4609 25.1826 18.5016C24.2013 18.5424 22.8724 18.6544 21.1959 18.8376C21.0324 17.738 20.9097 16.557 20.8279 15.2945C21.9115 15.0706 23.0462 14.8873 24.2319 14.7447C25.4177 14.5819 26.4809 14.5004 27.4213 14.5004C29.0569 14.5004 30.2835 14.7753 31.1013 15.3251C31.9191 15.8545 32.4506 16.557 32.6959 17.4326C32.9413 18.3082 33.0537 19.418 33.0333 20.7619L33.0026 25.2519L33.0946 28.8561H28.7399ZM26.1026 25.8017C26.6342 25.8017 27.1964 25.6999 27.7893 25.4962V23.236H27.5439C26.0311 23.236 25.1929 23.3174 25.0293 23.4803C24.9271 23.5821 24.8453 23.7348 24.7839 23.9385C24.7431 24.1421 24.7226 24.3356 24.7226 24.5188C24.7226 25.0075 24.8351 25.3435 25.0599 25.5268C25.2849 25.71 25.6324 25.8017 26.1026 25.8017ZM50.5811 15.6916C50.7651 15.9156 50.898 16.4756 50.9797 17.3715C51.082 18.2675 51.1331 19.6318 51.1331 21.4644V28.8561H45.8891V21.5255V20.2732C45.8891 19.6216 45.838 19.2143 45.7357 19.0514C45.5722 18.8478 45.194 18.746 44.6011 18.746C44.3149 18.746 44.1002 18.7562 43.9571 18.7765C43.3847 18.7969 42.7917 18.9293 42.1784 19.1736V28.8561H36.9344V14.8058H41.1971L41.7797 17.1577C43.2517 15.3862 45.01 14.5004 47.0544 14.5004C47.7904 14.5004 48.4753 14.6022 49.1091 14.8058C49.7633 15.0095 50.254 15.3047 50.5811 15.6916ZM61.5902 23.0833C61.5902 23.4498 61.6004 23.8367 61.6209 24.2439C61.6413 24.6308 61.7026 24.8752 61.8049 24.977C61.9479 25.1195 62.4489 25.1908 63.3075 25.1908L64.3502 25.1602C64.5342 26.1377 64.6262 27.2678 64.6262 28.5506C64.2377 28.6932 63.6653 28.8255 62.9089 28.9477C62.1729 29.0699 61.4675 29.131 60.7929 29.131C59.3822 29.131 58.2884 28.8255 57.5115 28.2146C56.7551 27.5834 56.3769 26.6162 56.3769 25.313V17.7991H54.0769V15.0196L56.3769 14.8058L57.7569 11.446L61.5902 11.2322V14.8058H64.8409V17.7991H61.5902V23.0833ZM82.0493 14.8058V28.8561H77.7867L77.204 26.5042C75.732 28.2757 73.9733 29.1615 71.9293 29.1615C71.1933 29.1615 70.498 29.0597 69.844 28.8561C69.21 28.6524 68.7293 28.3572 68.4027 27.9703C68.2187 27.7463 68.0753 27.1863 67.9733 26.2904C67.8913 25.3944 67.8507 24.0301 67.8507 22.1975V14.8058H73.0947V22.1364C73.0947 22.5436 73.1047 23.0222 73.1253 23.572C73.1453 24.1217 73.2067 24.4679 73.3093 24.6105C73.452 24.8141 73.8613 24.9159 74.536 24.9159L75.0267 24.8853C75.5987 24.865 76.192 24.7326 76.8053 24.4883V14.8058H82.0493Z" fill="#4D4343"/>
<path d="M30.2018 43.5391L26.3932 66.0073L17.1484 66.2019L15.1627 54.5625L13.1771 65.3593L3.93227 65.6833L0.0911255 43.5391L8.16406 42.8258L9.79166 56.2809L11.9727 42.8258H18.3203L20.8593 56.443L22.1615 42.8258L30.2018 43.5391ZM52.1321 64.6455L44.0592 65.6833L43.0827 62.0194H39.3717L38.5579 65.6833L30.2571 64.8726L36.735 43.2798L45.7845 42.8258L52.1321 64.6455ZM42.4967 57.059L41.2597 51.4176L40.0553 57.059H42.4967ZM73.216 50.4125C73.216 51.2555 73.14 52.0228 72.988 52.7145C72.8473 53.3953 72.6193 54.0222 72.3047 54.595C71.99 55.1677 71.5833 55.6973 71.084 56.1836C70.5847 56.67 69.9827 57.1346 69.2773 57.5778L73.1513 64.4509L65.8268 65.8779L63.3203 58.9719L61.3021 59.0367L61.0091 65.7803H54.0104C54.0647 63.3162 54.1135 60.8633 54.1569 58.4207C54.2111 55.9783 54.2708 53.525 54.3359 51.061C54.3576 49.8182 54.3793 48.5861 54.401 47.3649C54.4227 46.1437 54.4661 44.9116 54.5313 43.6688C55.2908 43.3878 56.0395 43.1555 56.7773 42.9717C57.5152 42.788 58.253 42.6475 58.9909 42.5502C59.7396 42.4422 60.4937 42.3719 61.2533 42.3395C62.0237 42.2962 62.8103 42.2747 63.6133 42.2747C64.8503 42.2747 66.0438 42.4476 67.194 42.7934C68.3553 43.1284 69.3807 43.6364 70.27 44.3173C71.16 44.9981 71.8707 45.8464 72.402 46.8624C72.9447 47.8782 73.216 49.0616 73.216 50.4125ZM65.9245 50.9313C65.9245 50.4774 65.8593 50.0613 65.7291 49.683C65.6098 49.3048 65.4253 48.9806 65.1757 48.7104C64.9371 48.4294 64.6332 48.2133 64.2643 48.0619C63.9063 47.8999 63.4831 47.8188 62.9948 47.8188C62.7777 47.8188 62.5662 47.835 62.36 47.8674C62.1539 47.889 61.9531 47.9269 61.7578 47.9809L61.4974 54.0114H61.888C62.3546 54.0114 62.8266 53.9519 63.304 53.833C63.7923 53.7142 64.2263 53.5305 64.6061 53.2819C64.9967 53.0333 65.3114 52.7145 65.5501 52.3254C65.7997 51.9364 65.9245 51.4717 65.9245 50.9313ZM95.7 62.4085C95.19 63.0466 94.5607 63.603 93.812 64.0784C93.0633 64.5539 92.26 64.9483 91.4027 65.2617C90.546 65.5751 89.6667 65.8128 88.766 65.9748C87.8653 66.1262 87.0087 66.2019 86.1947 66.2019C84.6213 66.2019 83.1727 65.937 81.8487 65.4078C80.5253 64.8779 79.3807 64.1435 78.4147 63.2033C77.46 62.2518 76.7113 61.1223 76.1687 59.8149C75.626 58.5072 75.3547 57.0807 75.3547 55.5352C75.3547 54.3572 75.4907 53.2116 75.762 52.0985C76.0327 50.9853 76.418 49.9424 76.9173 48.9698C77.4273 47.9971 78.046 47.1055 78.7727 46.295C79.5 45.4844 80.3247 44.7874 81.2467 44.2038C82.1693 43.6202 83.178 43.1717 84.274 42.8582C85.3807 42.534 86.5527 42.3719 87.79 42.3719C88.256 42.3719 88.7553 42.3935 89.2873 42.4367C89.8187 42.4692 90.3453 42.534 90.866 42.6313C91.3973 42.7177 91.9127 42.842 92.412 43.0041C92.9113 43.1663 93.3667 43.3662 93.7793 43.6039L93.3233 49.7965C92.716 49.5696 92.0867 49.4182 91.4353 49.3426C90.7953 49.2562 90.166 49.2129 89.5473 49.2129C88.6793 49.2129 87.8653 49.3318 87.106 49.5696C86.3573 49.7965 85.7007 50.1369 85.1367 50.5909C84.5833 51.0448 84.144 51.6122 83.8187 52.293C83.4927 52.9739 83.33 53.7628 83.33 54.6598C83.33 55.2218 83.406 55.7675 83.558 56.2971C83.71 56.8159 83.938 57.2806 84.2413 57.6913C84.556 58.0911 84.9413 58.4154 85.3973 58.6639C85.864 58.9125 86.4007 59.0367 87.0087 59.0367C87.4207 59.0367 87.844 58.9827 88.278 58.8747C88.7227 58.7666 89.1027 58.5828 89.4173 58.3235L89.4827 57.059L85.576 56.9942L85.7713 52.1309C87.388 52.0769 89.0047 52.0336 90.622 52.0012C92.2387 51.958 93.866 51.9039 95.5047 51.8391L95.7 62.4085ZM119.144 64.6455L111.071 65.6833L110.095 62.0194H106.383L105.569 65.6833L97.2687 64.8726L103.747 43.2798L112.796 42.8258L119.144 64.6455ZM109.509 57.059L108.271 51.4176L107.067 57.059H109.509Z" fill="white"/>
</svg>
