<svg width="51" height="52" viewBox="0 0 51 52" fill="none" xmlns="http://www.w3.org/2000/svg">
<path d="M50.92 10.1146L48.1682 37.4486C47.5859 40.6023 46.0751 43.5628 43.8391 45.9532C36.7965 53.4941 26.4641 52.8667 21.1905 46.5819C18.7604 43.6858 15.5613 41.5233 11.9146 40.3096C-0.531525 36.2813 0.195056 36.5201 0.0438832 36.4605C0.0838321 35.1037 0.912476 33.8051 2.23204 33.1746C2.97306 32.8203 3.54119 32.7885 4.24915 32.8279C11.1717 35.0158 18.2337 37.3928 18.2249 37.4001C18.9783 36.768 18.9638 35.6371 18.1957 35.1177C1.66747 23.9413 2.63184 24.6887 2.12825 24.0303C1.37361 23.0819 1.12221 21.6085 1.63186 20.301C1.8445 19.751 2.18779 19.2689 2.22352 19.2384C3.51738 18.5756 5.08539 18.5945 6.30512 19.4184C7.93223 20.5188 20.8686 29.267 22.6275 30.4565C7.00799 11.8419 8.2558 13.372 7.9995 12.9237C7.71089 12.4065 7.55855 11.8197 7.53518 11.3268C7.49465 10.7262 7.6325 10.1479 7.64137 10.1405C8.48296 6.78992 12.6886 5.76852 14.715 8.18355L29.3804 25.6611C20.42 4.56707 20.8861 5.68111 20.8365 5.52525C19.9047 2.89396 22.1751 -0.206137 25.3135 0.0813233C25.518 0.105437 24.6201 -1.73012 36.0867 23.6641L39.0288 27.1703C39.8752 28.179 41.8919 28.1465 42.8527 26.4778C43.4979 25.3564 43.429 24.2149 43.492 22.8408C43.7758 16.6588 43.7363 17.391 43.7746 16.9837C43.9973 15.3507 44.6629 13.6677 45.806 12.1916C46.2886 11.5712 47.1253 10.6785 47.7633 10.2824C48.6303 9.74537 49.6357 9.64918 50.4896 9.9335C50.7211 10.0067 50.9088 10.1099 50.92 10.1146V10.1146Z" fill="#FFE4CC"/>
</svg>
