<svg width="89" height="19" viewBox="0 0 89 19" fill="none" xmlns="http://www.w3.org/2000/svg">
<path d="M22.4298 1.75221L19.6013 18.5357L12.7357 18.681L11.2611 9.98656L9.78641 18.0516L2.92079 18.2937L0.0681763 1.75221L6.06352 1.21941L7.27225 11.2702L8.89196 1.21941H13.606L15.4916 11.3913L16.4586 1.21941L22.4298 1.75221ZM38.7163 17.5184L32.7209 18.2937L31.9957 15.5567H29.2398L28.6354 18.2937L22.4709 17.688L27.2816 1.55847L34.0022 1.21941L38.7163 17.5184ZM31.5606 11.8514L30.6419 7.63735L29.7475 11.8514H31.5606ZM54.3741 6.88655C54.3741 7.51628 54.3177 8.08946 54.2048 8.60609C54.1004 9.11469 53.931 9.58291 53.6974 10.0108C53.4637 10.4387 53.1617 10.8342 52.7908 11.1975C52.42 11.5608 51.9729 11.9079 51.4491 12.2389L54.3261 17.3731L48.8866 18.439L47.0251 13.2803L45.5263 13.3288L45.3087 18.3661H40.1112C40.1515 16.5254 40.1877 14.6932 40.2199 12.8686C40.2602 11.0441 40.3046 9.21156 40.3529 7.37095C40.369 6.44259 40.3852 5.52226 40.4012 4.61001C40.4174 3.69777 40.4496 2.77744 40.498 1.84908C41.062 1.63917 41.618 1.46562 42.166 1.32838C42.714 1.19113 43.2619 1.08618 43.8099 1.01352C44.3659 0.932819 44.9259 0.880344 45.4901 0.856089C46.0622 0.8238 46.6464 0.807678 47.2427 0.807678C48.1614 0.807678 49.0477 0.936835 49.9019 1.19515C50.7644 1.44543 51.5259 1.82488 52.1863 2.33347C52.8473 2.84202 53.375 3.47576 53.7696 4.23464C54.1726 4.99347 54.3741 5.87744 54.3741 6.88655ZM48.9591 7.27408C48.9591 6.93502 48.9107 6.62422 48.8141 6.34165C48.7254 6.05908 48.5884 5.81693 48.4031 5.61511C48.2258 5.4052 48.0002 5.24375 47.7262 5.13071C47.4603 5.00964 47.146 4.94908 46.7834 4.94908C46.6222 4.94908 46.4651 4.96118 46.312 4.98539C46.1589 5.00156 46.0098 5.02983 45.8648 5.07015L45.6714 9.57488H45.9614C46.308 9.57488 46.6585 9.53044 47.013 9.44165C47.3757 9.35287 47.698 9.21562 47.9801 9.02992C48.2701 8.84427 48.5038 8.60609 48.6811 8.31548C48.8664 8.02488 48.9591 7.67773 48.9591 7.27408ZM71.0718 15.8474C70.6931 16.324 70.2257 16.7397 69.6697 17.0948C69.1137 17.45 68.5171 17.7446 67.8804 17.9787C67.2442 18.2128 66.5912 18.3904 65.9223 18.5114C65.2534 18.6245 64.6172 18.681 64.0127 18.681C62.8443 18.681 61.7684 18.4831 60.7852 18.0878C59.8024 17.692 58.9523 17.1434 58.2349 16.4411C57.5259 15.7303 56.9699 14.8866 56.5669 13.91C56.1639 12.9332 55.9624 11.8676 55.9624 10.7131C55.9624 9.83319 56.0634 8.97744 56.2649 8.14595C56.4659 7.31445 56.7521 6.53539 57.1229 5.80885C57.5017 5.08226 57.9611 4.41628 58.5008 3.81081C59.0409 3.20534 59.6534 2.68464 60.3381 2.24871C61.0233 1.81277 61.7724 1.47772 62.5863 1.24361C63.4082 1.00142 64.2786 0.880342 65.1975 0.880342C65.5436 0.880342 65.9144 0.896463 66.3095 0.928753C66.7041 0.953007 67.0952 1.00142 67.4819 1.07408C67.8765 1.13866 68.2592 1.23151 68.63 1.35259C69.0008 1.47371 69.339 1.62305 69.6454 1.80062L69.3068 6.42642C68.8558 6.25688 68.3884 6.14385 67.9047 6.08735C67.4294 6.02277 66.962 5.99048 66.5026 5.99048C65.858 5.99048 65.2534 6.07926 64.6895 6.25688C64.1335 6.42642 63.6459 6.68072 63.227 7.01978C62.8161 7.35885 62.4898 7.78268 62.2482 8.29128C62.0061 8.79987 61.8853 9.38917 61.8853 10.0592C61.8853 10.479 61.9417 10.8867 62.0546 11.2823C62.1675 11.6698 62.3368 12.0169 62.5621 12.3237C62.7958 12.6224 63.0819 12.8646 63.4206 13.0503C63.7672 13.236 64.1657 13.3288 64.6172 13.3288C64.9232 13.3288 65.2376 13.2884 65.5599 13.2077C65.8901 13.1269 66.1723 12.9897 66.406 12.7959L66.4545 11.8514L63.5533 11.803L63.6983 8.17015C64.8989 8.12983 66.0996 8.09749 67.3007 8.07329C68.5013 8.041 69.7098 8.00062 70.9268 7.95221L71.0718 15.8474ZM88.4824 17.5184L82.4868 18.2937L81.762 15.5567H79.0058L78.4013 18.2937L72.2368 17.688L77.0477 1.55847L83.7681 1.21941L88.4824 17.5184ZM81.3268 11.8514L80.4079 7.63735L79.5137 11.8514H81.3268Z" fill="#5669FF"/>
</svg>
